HIERARCHY
ROOT Hips
{
	OFFSET	0.00	0.00	0.00
	CHANNELS 6 Xposition Yposition Zposition Zrotation Xrotation Yrotation
	JOINT LeftUpLeg
	{
		OFFSET	 0.126116	-0.014019	-0.065224
		CHANNELS 3 Zrotation Xrotation Yrotation
		JOINT LeftLeg
		{
			OFFSET	 0.000000	 0.000000	 0.569914
			CHANNELS 3 Zrotation Xrotation Yrotation
			JOINT LeftFoot
			{
				OFFSET	 0.000000	 0.000000	 0.544423
				CHANNELS 3 Zrotation Xrotation Yrotation
				JOINT LeftToeBase
				{
					OFFSET	 0.000000	 0.000000	 0.207117
					CHANNELS 3 Zrotation Xrotation Yrotation
					End Site
					{
						OFFSET	 0.000000	 0.000000	 0.207117
					}
				}
			}
		}
	}
	JOINT RightUpLeg
	{
		OFFSET	-0.124023	-0.008373	-0.065224
		CHANNELS 3 Zrotation Xrotation Yrotation
		JOINT RightLeg
		{
			OFFSET	 0.000000	 0.000000	 0.570047
			CHANNELS 3 Zrotation Xrotation Yrotation
			JOINT RightFoot
			{
				OFFSET	 0.000000	 0.000000	 0.544354
				CHANNELS 3 Zrotation Xrotation Yrotation
				JOINT RightToeBase
				{
					OFFSET	 0.000000	 0.000000	 0.207540
					CHANNELS 3 Zrotation Xrotation Yrotation
					End Site
					{
						OFFSET	 0.000000	 0.000000	 0.207540
					}
				}
			}
		}
	}
	JOINT Spine
	{
		OFFSET	 0.000184	-0.007763	 0.117403
		CHANNELS 3 Zrotation Xrotation Yrotation
		JOINT Spine1
		{
			OFFSET	 0.000000	 0.000000	 0.137269
			CHANNELS 3 Zrotation Xrotation Yrotation
			JOINT Spine2
			{
				OFFSET	 0.000000	 0.000000	 0.156879
				CHANNELS 3 Zrotation Xrotation Yrotation
				JOINT LeftShoulder
				{
					OFFSET	 0.080501	-0.002496	 0.160144
					CHANNELS 3 Zrotation Xrotation Yrotation
					JOINT LeftArm
					{
						OFFSET	 0.000000	 0.000000	 0.164363
						CHANNELS 3 Zrotation Xrotation Yrotation
						JOINT LeftForeArm
						{
							OFFSET	 0.000000	 0.000000	 0.364576
							CHANNELS 3 Zrotation Xrotation Yrotation
							JOINT LeftHand
							{
								OFFSET	 0.000000	 0.000000	 0.360812
								CHANNELS 3 Zrotation Xrotation Yrotation
								JOINT LeftHandIndex1
								{
									OFFSET	 0.000000	 0.000000	 0.086006
									CHANNELS 3 Zrotation Xrotation Yrotation
									JOINT LeftHandIndex2
									{
										OFFSET	 0.000000	 0.000000	 0.047236
										CHANNELS 3 Zrotation Xrotation Yrotation
										JOINT LeftHandIndex3
										{
											OFFSET	-0.004284	-0.000551	 0.038166
											CHANNELS 3 Zrotation Xrotation Yrotation
											End Site
											{
												OFFSET	-0.004284	-0.000551	 0.038166
											}
										}
									}
								}
							}
						}
					}
				}
				JOINT Neck
				{
					OFFSET	 0.000000	 0.000000	 0.176489
					CHANNELS 3 Zrotation Xrotation Yrotation
					JOINT Head
					{
						OFFSET	 0.000000	-0.001747	 0.077940
						CHANNELS 3 Zrotation Xrotation Yrotation
						End Site
						{
							OFFSET	 0.000000	-0.001747	 0.077940
						}
					}
				}
				JOINT RightShoulder
				{
					OFFSET	-0.080363	 0.000306	 0.159706
					CHANNELS 3 Zrotation Xrotation Yrotation
					JOINT RightArm
					{
						OFFSET	 0.000000	 0.000000	 0.164196
						CHANNELS 3 Zrotation Xrotation Yrotation
						JOINT RightForeArm
						{
							OFFSET	 0.000000	 0.000000	 0.365611
							CHANNELS 3 Zrotation Xrotation Yrotation
							JOINT RightHand
							{
								OFFSET	 0.000000	 0.000000	 0.360648
								CHANNELS 3 Zrotation Xrotation Yrotation
								JOINT RightHandIndex1
								{
									OFFSET	 0.000000	 0.000000	 0.069977
									CHANNELS 3 Zrotation Xrotation Yrotation
									JOINT RightHandIndex2
									{
										OFFSET	 0.000000	 0.000000	 0.052305
										CHANNELS 3 Zrotation Xrotation Yrotation
										JOINT RightHandIndex3
										{
											OFFSET	 0.009002	-0.000782	 0.042196
											CHANNELS 3 Zrotation Xrotation Yrotation
											End Site
											{
												OFFSET	 0.009002	-0.000782	 0.042196
											}
										}
									}
								}
							}
						}
					}
				}
			}
		}
	}
}
MOTION
Frames:    8
Frame Time: 0.03333334
 0.013708	 0.059268	 1.201943	 5.040340	-1.079276	-2.730949	-5.679561	-13.604780	-170.980900	 1.005461	-38.964350	 0.410477	 46.774730	 80.274900	-50.898650	-2.369538	 31.591670	-0.069394	 0.138386	-29.693080	-175.817900	 11.176400	-52.298790	 9.493689	 30.180910	 78.704960	-27.375810	 2.358900	 33.010650	 0.103470	-6.461088	 8.469337	 2.022590	-1.986857	 1.955671	-1.395167	 3.185328	-2.347727	 1.574387	-93.961120	 58.956830	 175.340800	 25.989290	 45.067390	-19.370900	-2.013172	-2.799898	-27.630290	-0.615544	-18.376990	-7.921468	-4.870105	 19.244200	-2.791019	-3.878348	 21.513460	 2.199524	-4.806190	 5.569866	 0.145545	-0.069752	-5.082448	 0.187282	 1.068312	 1.705388	 2.690856	 89.772990	 61.655410	 179.978300	-19.761100	 52.191530	 13.061890	-1.803450	-1.405771	 7.092497	-4.839792	-3.630094	 0.548115	 6.291680	 24.648040	-0.536378	 1.913170	 44.476060	-7.017767	 0.562332	 24.117790	 3.550035
 0.013308	 0.053229	 1.201498	 5.484369	-0.668549	-2.758296	-6.102633	-13.801490	-171.010400	 1.186118	-39.002730	 0.524526	 46.722400	 80.308420	-50.978480	-2.368788	 31.716070	-0.072224	-0.984532	-30.720890	-175.724700	 11.858010	-51.618980	 9.951323	 46.680630	 81.302700	-44.670170	 2.358980	 32.998810	 0.103197	-6.653859	 8.138876	 1.883902	-1.950674	 1.918740	-1.226629	 3.025930	-2.641764	 1.490927	-94.070430	 58.974560	 175.105600	 26.384240	 44.682490	-19.337260	-2.209110	-2.816474	-28.668460	-0.335650	-18.685130	-8.332174	-4.866283	 19.342250	-2.797456	-3.872186	 21.592190	 2.193252	-4.804808	 5.586246	 0.144585	-0.047268	-5.098904	 0.219403	 0.973118	 1.538467	 2.617910	 89.730550	 61.732080	 179.876700	-19.439400	 52.487910	 12.174850	-2.163114	-1.506976	 7.356400	-4.984090	-3.429443	 0.390854	 6.280947	 23.881150	-0.547003	 2.003860	 43.725650	-7.098328	 0.728422	 23.382360	 3.467104
 0.012581	 0.035164	 1.200354	 6.189600	 0.164140	-2.994950	-6.770050	-13.742640	-170.896400	 1.488573	-38.806110	 0.711883	 47.680900	 80.524330	-52.175870	-2.366729	 32.051160	-0.079844	-2.426295	-33.047330	-175.264600	 12.802540	-49.386660	 10.375700	 90.956180	 81.335420	-90.813800	 2.360244	 32.810730	 0.098835	-6.849027	 7.385683	 1.752101	-1.847099	 2.109270	-0.807801	 2.606254	-3.327874	 1.239682	-94.281650	 58.989830	 174.653200	 26.905340	 43.566810	-19.467530	-2.829228	-2.738348	-31.173810	-0.030770	-19.514540	-8.531796	-4.854023	 19.633080	-2.812028	-3.856784	 21.787980	 2.177626	-4.798445	 5.661111	 0.140196	-0.013434	-5.150850	 0.285559	 0.648627	 1.210655	 2.510486	 89.619030	 61.890510	 179.607800	-18.709750	 53.104360	 10.044720	-3.156143	-1.805061	 8.082300	-5.489459	-2.994321	-0.241503	 6.253589	 22.131240	-0.590209	 2.182673	 42.180370	-7.256111	 1.115075	 21.633570	 3.280949
 0.011975	 0.010868	 1.198909	 6.483534	 0.747438	-3.388806	-7.077620	-12.848550	-170.594900	 1.644888	-38.208670	 0.799325	 49.369190	 80.761130	-54.023960	-2.362503	 32.710250	-0.094966	-2.116062	-34.977520	-174.400300	 12.653820	-45.958200	 9.775962	 111.183900	 77.683440	-112.367700	 2.357845	 33.164380	 0.107048	-6.789233	 6.667259	 1.835815	-1.709838	 2.820488	-0.376307	 2.142549	-4.102745	 0.931654	-94.422790	 58.974720	 174.354700	 26.686390	 42.205620	-19.905750	-3.566004	-2.507408	-33.522650	-0.134674	-20.268010	-7.995824	-4.836421	 20.007310	-2.821545	-3.837393	 22.033290	 2.157915	-4.783368	 5.838407	 0.129774	 0.008060	-5.228336	 0.330333	 0.224272	 0.916555	 2.441813	 89.501630	 62.006350	 179.322500	-17.827750	 53.610910	 7.794117	-4.420617	-2.136013	 8.646920	-6.159044	-2.687036	-1.359760	 6.218622	 20.210100	-0.662366	 2.388828	 40.283200	-7.436101	 1.534425	 19.679750	 3.090428
 0.010945	-0.020596	 1.196838	 6.657848	 0.991909	-3.731332	-7.410375	-11.042840	-170.328900	 1.787950	-37.290020	 0.869652	 49.596730	 80.817070	-54.386410	-2.352235	 34.175400	-0.129207	-0.742469	-36.047360	-173.203000	 11.972310	-40.785820	 8.394814	 119.196000	 73.530300	-121.074300	 2.346620	 34.698060	 0.143266	-6.762454	 6.224148	 1.941084	-1.544248	 3.783779	 0.039479	 1.610782	-4.996981	 0.589754	-94.502200	 58.941020	 174.191000	 25.579710	 40.774750	-20.586750	-3.999934	-2.376255	-35.355220	-0.467321	-20.969040	-7.764248	-4.829367	 20.337870	-2.879006	-3.812838	 22.341590	 2.132979	-4.755948	 6.159727	 0.110752	 0.049848	-5.321005	 0.348622	-0.253115	 0.644269	 2.271940	 89.410550	 62.031920	 179.101800	-16.669630	 53.978650	 5.249401	-5.745170	-2.393116	 8.799448	-6.661334	-2.771555	-2.726573	 6.182295	 18.070740	-0.713247	 2.657094	 37.612250	-7.666858	 1.976748	 17.556290	 2.902955
 0.008591	-0.062040	 1.193303	 6.950105	 0.984824	-3.865111	-8.075076	-8.309279	-170.306800	 2.133213	-36.090570	 1.049041	 44.433510	 80.193880	-49.431500	-2.322729	 37.647620	-0.214269	-0.120962	-36.132860	-172.378900	 11.308770	-32.995430	 6.640202	 100.812300	 74.226390	-103.253000	 2.336236	 35.969620	 0.174109	-6.938742	 6.151868	 1.902887	-1.310143	 4.673035	 0.458413	 0.882706	-6.002718	 0.151808	-94.537630	 59.002840	 174.105300	 23.698300	 39.450840	-21.708180	-4.068861	-2.415391	-36.367150	-1.068017	-22.444890	-8.313323	-4.854753	 20.531930	-3.083755	-3.782574	 22.718210	 2.102241	-4.711135	 6.681663	 0.079499	 0.128671	-5.423081	 0.329306	-0.829062	 0.444704	 1.944530	 89.357620	 61.870290	 178.979800	-15.275420	 54.091840	 2.147151	-7.036094	-2.577704	 8.695439	-6.945988	-3.466609	-4.097544	 6.169963	 15.629240	-0.611526	 2.911454	 34.847150	-7.881477	 2.466073	 15.135670	 2.712540
 0.004754	-0.100327	 1.188356	 7.189237	 0.821520	-3.511743	-8.670818	-5.712026	-170.827300	 2.317377	-35.408460	 1.138620	 34.639550	 78.367580	-39.556630	-2.256339	 43.282720	-0.367422	 0.473941	-35.911370	-172.255600	 9.396773	-26.845630	 4.624308	 65.319420	 75.054080	-66.479440	 2.339300	 35.606960	 0.165231	-7.143174	 6.144982	 1.511575	-1.012106	 5.578840	 0.763098	 0.096739	-6.730982	-0.314059	-94.501530	 59.249020	 174.141400	 22.143610	 38.746030	-22.963720	-4.177219	-2.370688	-36.779760	-1.799551	-23.735620	-8.880328	-4.881725	 20.632620	-3.271547	-3.761834	 22.974080	 2.081187	-4.663382	 7.233575	 0.045959	 0.202205	-5.479943	 0.268572	-1.385251	 0.376499	 1.803453	 89.355370	 61.596110	 178.984500	-14.232220	 53.924400	-0.544309	-7.953940	-2.899935	 9.223557	-7.339427	-4.332785	-5.034855	 6.209337	 13.496630	-0.304739	 3.049774	 33.240110	-7.996249	 2.867241	 13.098410	 2.570376
-0.000849	-0.143064	 1.180275	 7.663239	 0.307077	-2.725066	-8.848817	-2.444089	-171.973700	 1.294092	-35.116780	 0.541554	 23.355380	 74.090160	-26.872190	-2.100233	 51.588230	-0.645010	 2.339683	-36.931190	-171.885900	 6.394759	-23.790040	 2.897906	 27.327090	 70.033690	-24.998790	 2.339107	 35.629620	 0.165792	-7.442678	 6.174474	 0.600619	-0.694386	 7.160790	 1.321254	-0.898454	-7.536929	-1.037451	-94.433750	 59.297160	 174.279000	 20.645970	 37.987120	-24.150890	-4.472313	-2.235388	-37.863830	-2.269585	-24.138720	-8.879624	-4.895188	 20.777070	-3.397292	-3.747877	 23.145360	 2.067015	-4.607704	 7.871488	 0.006560	 0.293805	-5.458702	 0.251609	-2.052020	 0.463807	 1.932854	 89.316680	 61.405580	 178.900000	-13.313930	 53.658880	-3.162990	-8.578076	-3.399424	 10.385580	-7.898908	-5.357004	-5.355900	 6.294886	 11.304180	 0.154200	 3.186293	 31.577810	-8.108026	 3.227706	 11.230390	 2.453812
